<?xml version="1.0" encoding="UTF-8" standalone="no"?><!DOCTYPE svg PUBLIC "-//W3C//DTD SVG 1.1//EN" "http://www.w3.org/Graphics/SVG/1.1/DTD/svg11.dtd"><svg width="100%" height="100%" viewBox="0 0 1920 1920" version="1.1" xmlns="http://www.w3.org/2000/svg" xmlns:xlink="http://www.w3.org/1999/xlink" xml:space="preserve" xmlns:serif="http://www.serif.com/" style="fill-rule:evenodd;clip-rule:evenodd;stroke-linejoin:round;stroke-miterlimit:2;"><rect id="EcoHubs-Logo" serif:id="EcoHubs Logo" x="0" y="0" width="1920" height="1920" style="fill:none;"/><g id="EcoHubs-Logo1" serif:id="EcoHubs Logo"><g><path d="M895.906,900.124c-31.204,31.205 -218.513,64.394 -371.175,-88.268c-91.285,-91.286 -206.245,-429.736 -176.537,-459.444c26.768,-26.768 368.158,85.252 459.443,176.538c164.72,164.72 123.097,336.346 88.269,371.174Z" style="fill:#064e3b;"/><path d="M1024.09,1023.75c31.204,-31.205 218.513,-64.393 371.175,88.269c91.285,91.285 206.245,429.736 176.537,459.443c-26.768,26.768 -368.158,-85.252 -459.443,-176.538c-164.72,-164.719 -123.097,-336.346 -88.269,-371.174Z" style="fill:#064e3b;"/><path d="M1021.81,897.842c-31.204,-31.205 -64.393,-218.513 88.269,-371.175c91.285,-91.286 429.736,-206.245 459.443,-176.538c26.769,26.768 -85.252,368.158 -176.537,459.444c-164.72,164.72 -336.347,123.097 -371.175,88.269Z" style="fill:#064e3b;"/><path d="M898.189,1026.03c31.204,31.204 64.393,218.513 -88.269,371.174c-91.285,91.286 -429.736,206.245 -459.443,176.538c-26.769,-26.768 85.252,-368.158 176.537,-459.444c164.72,-164.719 336.347,-123.097 371.175,-88.268Z" style="fill:#064e3b;"/></g><path d="M956.859,587.972c-28.189,-0 -127.783,-69.613 -127.783,-207.521c-0,-82.463 100.946,-287.259 127.783,-287.259c24.181,-0 127.782,204.796 127.782,287.259c0,148.801 -96.32,207.521 -127.782,207.521Z" style="fill:#1a8e7b;"/><path d="M969.472,1332.03c28.189,0 127.783,69.613 127.783,207.521c-0,82.463 -100.946,287.259 -127.783,287.259c-24.181,0 -127.782,-204.796 -127.782,-287.259c-0,-148.801 96.32,-207.521 127.782,-207.521Z" style="fill:#1a8e7b;"/><path d="M1335.72,962.031c-0,-28.189 69.612,-127.783 207.521,-127.783c82.463,0 287.259,100.947 287.259,127.783c0,24.181 -204.796,127.783 -287.259,127.783c-148.801,-0 -207.521,-96.321 -207.521,-127.783Z" style="fill:#1a8e7b;"/><path d="M588.592,959.783c0,28.189 -69.612,127.783 -207.521,127.783c-82.463,0 -287.259,-100.946 -287.259,-127.783c-0,-24.181 204.796,-127.782 287.259,-127.782c148.801,-0 207.521,96.32 207.521,127.782Z" style="fill:#1a8e7b;"/></g></svg>