<?xml version="1.0" encoding="UTF-8" standalone="no"?><!DOCTYPE svg PUBLIC "-//W3C//DTD SVG 1.1//EN" "http://www.w3.org/Graphics/SVG/1.1/DTD/svg11.dtd"><svg width="100%" height="100%" viewBox="0 0 8005 8000" version="1.1" xmlns="http://www.w3.org/2000/svg" xmlns:xlink="http://www.w3.org/1999/xlink" xml:space="preserve" xmlns:serif="http://www.serif.com/" style="fill-rule:evenodd;clip-rule:evenodd;stroke-linejoin:round;stroke-miterlimit:2;"><rect id="GaiaLogo-White" serif:id="GaiaLogo White" x="1.53" y="0" width="8000" height="8000" style="fill:none;"/><path d="M3391.3,7564.49c-1600.09,-288.17 -2815.66,-1689.05 -2815.66,-3371.6c-0,-1578.06 1069.28,-2908.35 2522.2,-3305.24c-63.122,120.282 -117.787,245.074 -163.512,373.016c-417.608,152.21 -793.668,391.153 -1106.34,694.988c213.094,26.791 623.644,119.093 930.081,437.099c268.849,278.999 401.42,869.814 437.605,1034.95c44.268,202.027 294.544,440.828 294.544,440.828c0,0 1.305,-156.576 30.244,-423.231c6.685,-61.599 14.845,-129.073 24.804,-201.848c53.069,-387.806 301.48,-1279.56 301.48,-1279.56l-415.873,895.464c-618.029,-1020.35 45.856,-2548.8 1313.94,-2672.19c-0,-0 758.34,1565 -713.51,2722.49c-252.631,198.673 -251.546,456.399 -251.546,702.433c-58.495,347.38 17.49,768.192 228.422,1118.74c0,-0 98.141,-143.092 335.869,-303.633c291.961,-197.166 546.466,-304.876 791.113,-501.024c229.17,-183.738 494.561,-362.918 652.407,-556.686c-77.64,-80.178 -125.45,-189.412 -125.45,-309.725c-0,-245.808 199.565,-445.373 445.373,-445.373c245.809,-0 445.374,199.565 445.374,445.373c-0,245.808 -199.565,445.374 -445.374,445.374c-35.311,-0 -69.668,-4.119 -102.616,-11.901c-2.769,4.123 -5.776,8.098 -9.027,11.901c-97.805,114.402 -459.588,451.179 -598.418,555.466c58.755,110.261 320.108,431.846 417.926,550.819c29.997,-6.383 61.108,-9.742 92.997,-9.742c245.808,0 445.373,199.565 445.373,445.374c0,245.808 -199.565,445.373 -445.373,445.373c-245.808,0 -445.373,-199.565 -445.373,-445.373c-0,-121.168 48.491,-231.099 127.109,-311.429l-442.733,-503.309c-0,-0 -430.767,248.947 -618.553,386.225c-142.681,104.304 -379.484,368.882 -435.128,506.6c-0,0 -198.692,720.562 -228.033,873.525c-30.494,158.971 25.088,934.142 25.088,934.142l608.285,-519.323c-20.744,-47.774 -32.246,-100.475 -32.246,-155.841c-0,-216.36 175.656,-392.016 392.015,-392.016c185.532,0 341.134,129.167 381.708,302.404l10.307,-3.14l688.963,80.555c69.835,-108.059 191.366,-179.642 329.483,-179.642c68.679,0 133.257,17.7 189.417,48.782c415.1,-529.837 662.673,-1197.09 662.673,-1921.7c-0,-1237.71 -722.317,-2308.05 -1768.05,-2812.12c15.144,-110.606 24.136,-218.889 28.11,-324.1c1204.43,531.236 2046.01,1736.22 2046.01,3136.22c0,824.133 -291.633,1580.69 -777.242,2172.01c7.254,29.792 11.099,60.913 11.099,92.924c-0,216.36 -175.656,392.016 -392.016,392.016c-31.844,-0 -62.807,-3.805 -92.458,-10.986c-558.587,459.874 -1265.09,746.458 -2036.92,777.175c-76.158,118.344 -209.044,196.791 -360.108,196.791c-172.055,0 -320.529,-101.762 -388.467,-248.331Zm732.46,-434.027c37.898,51.131 64.673,110.992 76.737,175.991c648.918,-40.923 1244.26,-280.605 1725.76,-658.792c-31.227,-56.258 -49.015,-120.986 -49.015,-189.837l0.031,-4.939l-667.255,-21.033c-64.189,129.049 -197.421,217.811 -351.222,217.811c-69.542,0 -134.88,-18.147 -191.531,-49.961c-209.043,148.069 -394.53,320.495 -543.441,530.744l-0.062,0.016Zm-2112.68,-535.868c386.716,320.937 852.073,550.334 1362.7,654.82c39.42,-118.026 128.908,-213.223 243.204,-260.331l-8.235,-7.758c-0,0 70.598,-887.352 -37.558,-1115.69c-108.155,-228.341 -452.275,-489.79 -452.275,-489.79l-857.913,656.736c19.983,49.453 30.987,103.482 30.987,160.06c-0,184.533 -117.06,341.942 -280.91,401.956Zm-473.955,-4314.1c-410.725,528.334 -655.411,1192.02 -655.411,1912.39c-0,571.447 153.971,1107.21 422.653,1568.05l290.872,98.853c73.492,-59.449 167.035,-95.072 268.832,-95.072c97.567,0 187.552,32.724 259.567,87.785c108.408,-89.693 737.215,-610.021 791.979,-656.976c-194.441,-79.894 -825.158,-577.73 -1000.18,-717.357c-67.423,41.078 -146.595,64.749 -231.251,64.749c-245.808,0 -445.373,-199.565 -445.373,-445.373c-0,-245.809 199.565,-445.374 445.373,-445.374c245.808,0 445.374,199.565 445.374,445.374c-0,76.608 -19.384,148.724 -53.511,211.707l20.372,-13.106c0,-0 1078.56,798.495 1216.82,921.287c139.25,123.675 406.402,417.356 406.402,417.356c12.84,-1.846 100.314,-260.674 60.124,-587.733c-40.596,-330.355 -80.174,-413.355 -246.405,-670.076c-116.057,-179.234 -141.715,-221.294 -252.576,-376.987c-120.071,-168.627 -132.273,-212.936 -270.566,-359.079c-138.293,-146.143 -885.9,-195.466 -1002.57,-594.197c-133.684,-456.88 -364.576,-709.109 -470.528,-766.223Zm3116.72,964.575c137.359,-542.623 382.462,-770.253 890.436,-852.313c-95.307,522.594 -459.326,878.231 -890.436,852.313Z" style="fill:#fff;"/></svg>